<svg width="290" height="37" viewBox="0 0 290 37" fill="none" xmlns="http://www.w3.org/2000/svg">
<path d="M25.9 25.7H11.95L10.15 30.55H13.6V36H0.7V30.55H3.5L15.5 -1.43051e-06H22.3L34.35 30.55H37.15V36H24.25V30.55H27.7L25.9 25.7ZM23.9 20.4L18.9 6.55L13.95 20.4H23.9ZM48.5387 30.55V6.2L41.1887 9.2L39.5387 4.55L49.7887 -1.43051e-06H54.8887V30.55H61.7387V36H41.5887V30.55H48.5387ZM84.0309 30.55V5.45H80.5809V-1.43051e-06H95.3809C100.231 -1.43051e-06 102.231 0.399999 104.181 1.7C106.731 3.45 108.231 6.65 108.231 10.4C108.231 13.2 107.381 15.4 105.731 17.1C105.081 17.8 104.581 18.1 102.431 19.35C104.181 20.2 105.081 21.55 106.081 24.9L107.781 30.55H110.981V36H102.081L100.531 29.5C99.0309 22.95 97.7309 21.65 92.4809 21.65H90.6309V30.55H94.5309V36H80.5809V30.55H84.0309ZM90.6309 16.35H93.7809C99.3309 16.35 101.531 14.75 101.531 10.75C101.531 7 99.4809 5.45 94.4809 5.45H90.6309V16.35ZM126.109 10.9C127.759 10.9 129.359 11.15 130.859 11.65C136.109 13.4 139.159 17.9 139.159 23.8C139.159 25.5 138.909 27.2 138.359 28.75C136.659 33.65 131.909 36.7 125.959 36.7C124.209 36.7 122.559 36.45 121.009 35.95C115.859 34.3 112.709 29.7 112.709 23.85C112.709 15.95 117.959 10.9 126.109 10.9ZM125.859 16.35C124.959 16.35 124.159 16.5 123.409 16.75C120.659 17.8 119.159 20.25 119.159 23.8C119.159 24.85 119.309 25.9 119.609 26.85C120.459 29.55 122.859 31.25 125.959 31.25C130.059 31.25 132.709 28.35 132.709 23.85C132.709 22.75 132.559 21.7 132.259 20.75C131.409 18.05 128.959 16.35 125.859 16.35ZM141.495 36V30.55L154.245 17.05H148.095V19.95H142.645V11.6H162.395V16.4L149.245 30.55H157.395V26.75H162.845V36H141.495ZM169.077 17.05H165.727V11.6H175.427V26C175.427 29.6 176.027 30.75 177.827 30.75C178.227 30.75 178.627 30.7 179.027 30.6C180.627 30.15 181.677 29.5 183.827 27.5V17.05H180.677V11.6H190.127V30.55H193.577V36H183.827V33.2C180.227 35.8 178.827 36.4 176.077 36.4C170.977 36.4 169.077 33.5 169.077 25.7V17.05ZM199.945 30.55V17.05H196.495V11.6H206.095V14.4C206.345 14.2 206.545 14 206.745 13.9C209.795 11.5 211.195 10.9 213.795 10.9C214.545 10.9 215.295 11 215.995 11.15C218.145 11.6 219.245 12.65 220.295 14.95C224.195 11.7 225.895 10.9 228.795 10.9C231.745 10.9 233.795 12 234.895 14.1C235.795 15.9 236.145 18.05 236.145 21.9V30.55H239.495V36H227.145V30.55H229.795V21.6C229.795 18 228.995 16.55 227.095 16.55C225.295 16.55 223.895 17.35 221.195 20.1V30.55H224.295V36H212.195V30.55H214.845V21.6C214.845 18 214.045 16.55 212.145 16.55C210.295 16.55 208.745 17.5 206.295 20.1V30.55H209.095V36H196.495V30.55H199.945ZM267.596 25.9H248.946C249.696 29.6 251.796 31.25 255.646 31.25C256.496 31.25 257.296 31.2 258.046 31.05C260.146 30.7 261.796 30.1 264.446 28.55L267.296 33.3C263.146 35.8 259.846 36.75 255.596 36.75C247.446 36.75 242.296 31.75 242.296 23.8C242.296 15.9 247.246 10.9 255.096 10.9C256.646 10.9 258.146 11.1 259.496 11.5C263.146 12.65 265.896 15.6 266.946 19.7C267.396 21.35 267.546 23 267.596 25.9ZM249.046 21.05H260.896C260.196 17.8 258.246 16.15 254.996 16.15C254.246 16.15 253.546 16.25 252.896 16.45C250.996 17 249.646 18.6 249.046 21.05ZM274.164 30.55V17.05H270.714V11.6H280.214V14.55C283.364 11.8 285.164 10.95 288.364 10.9H289.164V16.95H288.064C285.014 16.9 283.164 17.8 280.514 20.6V30.55H284.164V36H270.714V30.55H274.164Z" fill="#FDC9C4"/>
</svg>
