<svg width="36" height="31" viewBox="0 0 36 31" fill="none" xmlns="http://www.w3.org/2000/svg">
<path d="M36 15.7713V29.7083H30.8571V27.125H33.4286V15.7713C33.4384 15.1324 33.2402 14.5079 32.8642 13.9926C32.4883 13.4773 31.955 13.0995 31.3457 12.9167C32.1319 12.4404 32.8355 11.8383 33.4286 11.1342C34.2125 11.6256 34.8596 12.3088 35.3093 13.1197C35.759 13.9307 35.9966 14.843 36 15.7713ZM2.57143 15.7713C2.56163 15.1324 2.75979 14.5079 3.13576 13.9926C3.51174 13.4773 4.04495 13.0995 4.65429 12.9167C3.86806 12.4404 3.16452 11.8383 2.57143 11.1342C1.78751 11.6256 1.14045 12.3088 0.690743 13.1197C0.24104 13.9307 0.00338501 14.843 0 15.7713V29.7083H5.14286V27.125H2.57143V15.7713ZM24.4286 7.75C24.4286 6.47267 24.0515 5.22401 23.3452 4.16195C22.6388 3.09988 21.6348 2.2721 20.4601 1.78328C19.2854 1.29447 17.9929 1.16657 16.7458 1.41577C15.4988 1.66496 14.3534 2.28006 13.4543 3.18327C12.5553 4.08649 11.943 5.23725 11.695 6.49005C11.4469 7.74284 11.5742 9.0414 12.0608 10.2215C12.5473 11.4016 13.3713 12.4103 14.4285 13.1199C15.4857 13.8296 16.7285 14.2083 18 14.2083C19.705 14.2083 21.3401 13.5279 22.5457 12.3167C23.7513 11.1056 24.4286 9.46286 24.4286 7.75ZM21.8571 7.75C21.8571 8.51641 21.6309 9.2656 21.2071 9.90284C20.7833 10.5401 20.1809 11.0367 19.4761 11.33C18.7713 11.6233 17.9957 11.7001 17.2475 11.5505C16.4993 11.401 15.812 11.032 15.2726 10.49C14.7332 9.94812 14.3658 9.25766 14.217 8.50598C14.0681 7.7543 14.1445 6.97517 14.4365 6.26711C14.7284 5.55904 15.2228 4.95385 15.8571 4.52806C16.4914 4.10227 17.2371 3.875 18 3.875C19.023 3.875 20.0041 4.28326 20.7274 5.00997C21.4508 5.73667 21.8571 6.72229 21.8571 7.75ZM27 4.61063e-06C25.8966 -0.00139752 24.8163 0.31703 23.8886 0.917088C24.5484 1.49779 25.1201 2.17229 25.5857 2.91917C26.0245 2.69756 26.5089 2.58253 27 2.58334C27.8525 2.58334 28.67 2.92355 29.2728 3.52914C29.8756 4.13473 30.2143 4.95608 30.2143 5.8125C30.2143 6.66893 29.8756 7.49028 29.2728 8.09587C28.67 8.70146 27.8525 9.04167 27 9.04167H26.8971C26.7745 9.93454 26.5233 10.8047 26.1514 11.625C26.434 11.6442 26.7175 11.6442 27 11.625C28.5345 11.625 30.0061 11.0126 31.0911 9.92256C32.1761 8.83251 32.7857 7.35408 32.7857 5.8125C32.7857 4.27093 32.1761 2.7925 31.0911 1.70245C30.0061 0.612391 28.5345 4.61063e-06 27 4.61063e-06ZM9.84857 11.625C9.47671 10.8047 9.22551 9.93454 9.10286 9.04167H9C8.14752 9.04167 7.32995 8.70146 6.72716 8.09587C6.12436 7.49028 5.78571 6.66893 5.78571 5.8125C5.78571 4.95608 6.12436 4.13473 6.72716 3.52914C7.32995 2.92355 8.14752 2.58334 9 2.58334C9.49109 2.58253 9.97552 2.69756 10.4143 2.91917C10.8799 2.17229 11.4516 1.49779 12.1114 0.917088C11.1837 0.31703 10.1034 -0.00139752 9 4.61063e-06C7.46553 4.61063e-06 5.99391 0.612391 4.90888 1.70245C3.82385 2.7925 3.21429 4.27093 3.21429 5.8125C3.21429 7.35408 3.82385 8.83251 4.90888 9.92256C5.99391 11.0126 7.46553 11.625 9 11.625C9.28253 11.6442 9.56604 11.6442 9.84857 11.625ZM24.9043 13.6142C24.1801 14.4656 23.309 15.1788 22.3329 15.7196H22.5386C23.3381 15.6773 24.1215 15.9556 24.717 16.4932C25.3124 17.0309 25.6711 17.784 25.7143 18.5871V28.4167H12.8571V31H28.2857V18.5871C28.2767 17.5066 27.9512 16.4528 27.3498 15.557C26.7485 14.6611 25.898 13.963 24.9043 13.5496V13.6142ZM13.6286 15.655C12.6787 15.1192 11.8336 14.4146 11.1343 13.5754C10.1384 13.9825 9.28334 14.6745 8.67536 15.5654C8.06738 16.4564 7.7332 17.5071 7.71429 18.5871V31H10.2857V18.5871C10.3387 17.7611 10.7143 16.9896 11.3307 16.4404C11.9471 15.8913 12.7545 15.609 13.5771 15.655H13.6286Z" fill="#7A8EFF"/>
</svg>
