<svg width="28" height="24" viewBox="0 0 28 24" fill="none" xmlns="http://www.w3.org/2000/svg">
<path d="M10.5842 21.6509C10.7158 19.75 10.8464 17.8487 10.976 15.947C10.984 15.8241 11.0509 15.7591 11.1269 15.6871C12.3992 14.5128 13.6715 13.3385 14.9438 12.1642C17.5588 9.75107 20.1735 7.33641 22.7882 4.92027C22.8803 4.83989 22.9646 4.7506 23.0398 4.65362C23.1685 4.4761 23.1052 4.32718 22.8915 4.29636C22.6315 4.25922 22.4011 4.35541 22.187 4.49096C21.7144 4.79066 21.2418 5.09592 20.7692 5.39934L8.57972 13.2483C8.21075 13.4856 7.83923 13.7192 7.47244 13.9602C7.43838 13.9848 7.39891 14.0005 7.35752 14.0059C7.31612 14.0113 7.27407 14.0062 7.23506 13.991C5.15501 13.3226 3.07459 12.6562 0.99381 11.9919C0.754465 11.9216 0.528884 11.8094 0.327118 11.6603C-0.0694812 11.3554 -0.109108 10.9484 0.228237 10.5763C0.524142 10.2491 0.908745 10.0641 1.30571 9.90779C2.95366 9.25517 4.60367 8.60527 6.25574 7.95809C10.2116 6.39981 14.1674 4.84153 18.1232 3.28326C20.7791 2.23698 23.435 1.1912 26.0911 0.145907C26.4016 0.0237261 26.72 -0.039779 27.0523 0.027068C27.5976 0.136251 27.9433 0.600095 27.9934 1.28193C28.0171 1.60614 27.9742 1.92441 27.9087 2.24007C26.8805 7.19715 25.8521 12.1543 24.8236 17.1117C24.462 18.8549 24.1012 20.5984 23.7414 22.3421C23.6661 22.706 23.5785 23.0659 23.3873 23.3893C23.0965 23.8844 22.6603 24.0838 22.1055 23.9679C21.7952 23.9055 21.5021 23.7742 21.2469 23.5832C19.2044 22.0445 17.1626 20.5045 15.1216 18.9633C14.9667 18.846 14.8846 18.8549 14.7483 18.9908C13.7304 20.0061 12.6998 21.0107 11.6758 22.0212C11.4115 22.2812 11.116 22.4721 10.7412 22.5107C10.5231 22.533 10.5231 22.5348 10.5373 22.3183L10.5831 21.6498L10.5842 21.6509Z" fill="white"/>
</svg>
