<svg width="36" height="35" viewBox="0 0 36 35" fill="none" xmlns="http://www.w3.org/2000/svg">
<path d="M12.4234 24.9366V31.7526L19.2146 24.9366H29.3347C29.821 24.9366 30.3025 24.8433 30.7518 24.6619C31.201 24.4806 31.6092 24.2148 31.9531 23.8798C32.2969 23.5447 32.5697 23.1469 32.7558 22.7092C32.9419 22.2714 33.0376 21.8022 33.0376 21.3284V6.49485C33.0376 5.53788 32.6475 4.62011 31.9531 3.94343C31.2586 3.26675 30.3168 2.8866 29.3347 2.8866H6.6653C5.68321 2.8866 4.74136 3.26675 4.04692 3.94343C3.35248 4.62011 2.96235 5.53788 2.96235 6.49485V6.85567H0V6.49485C0 4.77231 0.702235 3.12032 1.95222 1.9023C3.20221 0.684276 4.89755 0 6.6653 0H29.3347C31.1025 0 32.7978 0.684276 34.0478 1.9023C35.2978 3.12032 36 4.77231 36 6.49485V21.3284C36 23.0509 35.2978 24.7029 34.0478 25.9209C32.7978 27.1389 31.1025 27.8232 29.3347 27.8232H20.4476L13.3195 35H9.46102V27.8232H6.6653C4.89755 27.8232 3.20221 27.1389 1.95222 25.9209C0.702235 24.7029 0 23.0509 0 21.3284V10.4639H2.96235V21.3284C2.96235 21.8022 3.05813 22.2714 3.24422 22.7092C3.43031 23.1469 3.70307 23.5447 4.04692 23.8798C4.39077 24.2148 4.79898 24.4806 5.24824 24.6619C5.6975 24.8433 6.17902 24.9366 6.6653 24.9366H12.4234Z" fill="#7A8EFF"/>
<path d="M16.3337 15.8763H19.296V6.85571H16.3337V15.8763Z" fill="#7A8EFF"/>
<path d="M16.3337 20.567H19.296V17.6804H16.3337V20.567Z" fill="#7A8EFF"/>
</svg>
