<svg xmlns="http://www.w3.org/2000/svg" width="638" height="609" fill="none"><path fill="url(#a)" d="M550.512 36.837c-.492 7.456-1.137 14.854-1.853 22.225v.015a825.217 825.217 0 0 1-23.798 131.918 821.396 821.396 0 0 1-45.784 128.422l-30.537-60.849-16.145-32.179-10.362-20.652a136.647 136.647 0 0 0 1.601-4.957 722.672 722.672 0 0 0 23.095-93.406 727.14 727.14 0 0 0 9.084-70.537h94.699Z"/><path fill="url(#b)" d="m533.734 409.315-4.788 9.505v.014l-4.085 8.157-19.993 39.845-2.766 5.546-.758 1.488-1.952-3.861-26.661-53.155-3.763-7.539-17.395-34.693-19.151-38.16-11.456-22.843-22.618-45.082-58.181-115.955-58.055-115.744L263.86.447l-63.193 36.391-17.143 9.898-90.585 52.27L.36 152.456v302.825l92.579 53.45 83.13 47.988 55.822 32.222 30.734 17.732s63.123-46.837 131.16-140.862l25.328 50.515 1.853 3.693v.014l28.613 57.016v.014c21.383 42.583 82.175 42.583 103.558 0v-.014l.758-1.474 26.858-53.548 56.567-112.74H533.734v.028Zm-215.624 0a736.278 736.278 0 0 1-69.638 82.484l-24.527-14.166-118.328-68.318-12.692-7.329-.126-.056V205.85l.126-.057 132.087-76.264 120.251 239.688a711.66 711.66 0 0 1-27.153 40.098Z"/><path fill="url(#c)" d="M393.771 465.839c-68.037 94.025-131.16 140.862-131.16 140.862l-30.733-17.732-7.933-111.322 24.528 14.166c25.145-25.735 48.451-53.295 69.638-82.484a720.918 720.918 0 0 0 27.167-40.112l48.493 96.622Z"/><path fill="url(#d)" d="m637.306 409.315-56.567 112.74c-11.4 22.716-43.832 22.716-55.232-.014l-24.177-48.185.758-1.488 2.766-5.546 19.993-39.845 4.085-8.157v-.014l4.788-9.505h103.586v.014Z"/><path fill="url(#e)" d="M248.472 491.813.36 455.295V152.47l224.666-22.955-132.101 76.264-.112.056V401.93l.112.056 12.692 7.329 118.328 68.317 24.527 14.181Z"/><defs><linearGradient id="a" x1="523.544" x2="400.109" y1="63.125" y2="316.166" gradientUnits="userSpaceOnUse"><stop stop-color="#D38FF1"/><stop offset="1" stop-color="#780ED8"/></linearGradient><linearGradient id="b" x1="318.84" x2="318.84" y1="42.361" y2="667.669" gradientUnits="userSpaceOnUse"><stop stop-color="#D38FF1"/><stop offset="1" stop-color="#780ED8"/></linearGradient><linearGradient id="c" x1="256.084" x2="446.379" y1="522.625" y2="384.79" gradientUnits="userSpaceOnUse"><stop stop-opacity="0"/><stop offset="1"/></linearGradient><linearGradient id="d" x1="571.686" x2="528.242" y1="432.272" y2="603.151" gradientUnits="userSpaceOnUse"><stop stop-opacity="0"/><stop offset="1"/></linearGradient><linearGradient id="e" x1="-14.123" x2="298.782" y1="310.664" y2="310.664" gradientUnits="userSpaceOnUse"><stop stop-opacity="0"/><stop offset="1"/></linearGradient></defs></svg>