<svg width="34" height="32" viewBox="0 0 34 32" fill="none" xmlns="http://www.w3.org/2000/svg">
<path d="M14.1667 6.95652H11.3333V0H14.1667V6.95652ZM25.5 20.8696H8.5V23.6522H25.5V20.8696ZM25.5 12.5217H8.5V15.3043H25.5V12.5217ZM22.6667 0H19.8333V6.95652H22.6667V0ZM34 26.4348V8.34783C34 6.87184 33.403 5.4563 32.3403 4.41262C31.2776 3.36894 29.8362 2.78261 28.3333 2.78261H25.5V5.56522H28.3333C29.0848 5.56522 29.8054 5.85839 30.3368 6.38023C30.8682 6.90207 31.1667 7.60983 31.1667 8.34783V26.4348C31.1667 27.1728 30.8682 27.8805 30.3368 28.4024C29.8054 28.9242 29.0848 29.2174 28.3333 29.2174H5.66667C4.91522 29.2174 4.19455 28.9242 3.6632 28.4024C3.13184 27.8805 2.83333 27.1728 2.83333 26.4348V8.34783C2.83333 7.60983 3.13184 6.90207 3.6632 6.38023C4.19455 5.85839 4.91522 5.56522 5.66667 5.56522H8.5V2.78261H5.66667C4.16377 2.78261 2.72243 3.36894 1.65973 4.41262C0.597022 5.4563 0 6.87184 0 8.34783V26.4348C0 27.9108 0.597022 29.3263 1.65973 30.37C2.72243 31.4137 4.16377 32 5.66667 32H28.3333C29.8362 32 31.2776 31.4137 32.3403 30.37C33.403 29.3263 34 27.9108 34 26.4348Z" fill="black"/>
</svg>
