<svg width="49" height="55" viewBox="0 0 49 55" fill="none" xmlns="http://www.w3.org/2000/svg">
<path d="M48.9816 27.4729C48.9816 23.1869 48.9686 18.9001 48.9953 14.6141C48.9953 13.9422 48.806 13.547 48.1917 13.2016C40.5675 8.91535 32.9556 4.60744 25.3558 0.277866C24.7255 -0.0811268 24.2462 -0.100023 23.6006 0.266527C16.0364 4.57645 8.45932 8.8642 0.869215 13.1298C0.226659 13.491 -0.00151858 13.8856 7.68401e-06 14.6172C0.0259542 23.1891 0.0259542 31.7614 7.83328e-06 40.3339C7.83785e-06 41.1214 0.265576 41.531 0.943237 41.9112C8.49874 46.1566 16.0408 50.4254 23.5693 54.7177C24.2561 55.1107 24.7369 55.0835 25.4138 54.6973C32.9434 50.4025 40.4872 46.1354 48.0452 41.896C48.7893 41.4788 49.006 41.011 48.9999 40.2107C48.9632 35.9678 48.9816 31.7218 48.9816 27.4729Z" fill="#EB140A"/>
<path d="M20.5988 33.2498V20.5837H18.8579V17.8335H25.4937C28.2943 17.8335 29.6316 18.1111 30.8679 18.9942C32.2809 20.0034 33.063 21.6434 33.063 23.6619C33.063 27.4214 30.5147 29.339 25.5189 29.339H23.9293V33.2498H26.2254V36H18.8579V33.2498H20.5988ZM23.9293 26.6645H25.3171C28.2439 26.6645 29.6821 25.6552 29.6821 23.561C29.6821 21.5677 28.2943 20.5837 25.4684 20.5837H23.9293V26.6645Z" fill="white"/>
</svg>
