<svg width="49" height="55" viewBox="0 0 49 55" fill="none" xmlns="http://www.w3.org/2000/svg">
<path d="M48.9816 27.4729C48.9816 23.1869 48.9686 18.9001 48.9953 14.6141C48.9953 13.9422 48.806 13.547 48.1917 13.2016C40.5675 8.91535 32.9556 4.60744 25.3558 0.277866C24.7255 -0.0811268 24.2462 -0.100023 23.6006 0.266527C16.0364 4.57645 8.45932 8.8642 0.869215 13.1298C0.226659 13.491 -0.00151858 13.8856 7.68401e-06 14.6172C0.0259542 23.1891 0.0259542 31.7614 7.83328e-06 40.3339C7.83785e-06 41.1214 0.265576 41.531 0.943237 41.9112C8.49874 46.1566 16.0408 50.4254 23.5693 54.7177C24.2561 55.1107 24.7369 55.0835 25.4138 54.6973C32.9434 50.4025 40.4872 46.1354 48.0452 41.896C48.7893 41.4788 49.006 41.011 48.9999 40.2107C48.9632 35.9678 48.9816 31.7218 48.9816 27.4729Z" fill="#701689"/>
<path d="M18.3373 36V30.1716H21.2136V30.5753C21.2136 32.3162 22.7527 33.4769 24.9983 33.4769C26.9663 33.4769 28.2279 32.4929 28.2279 30.9285C28.2279 30.651 28.1774 30.3482 28.0513 30.0959C27.6223 29.0614 26.9411 28.7082 23.6358 27.7494C21.0875 27.0177 20.1791 26.5888 19.4727 25.7814C18.741 24.974 18.4129 23.9899 18.4129 22.7031C18.4129 21.9714 18.5391 21.2902 18.7662 20.6342C19.4474 18.6409 21.3902 17.4551 23.9386 17.4551C24.5189 17.4551 25.074 17.5055 25.5534 17.6317C26.3355 17.8083 26.8654 18.0606 27.6223 18.5905V17.8335H30.2969V23.4096H27.4205V23.1825C27.4205 21.4164 26.1842 20.3314 24.1909 20.3314C22.6518 20.3314 21.6678 21.1136 21.6678 22.3751C21.6678 22.6275 21.693 22.8545 21.7687 23.0564C22.0967 23.9647 22.8284 24.3432 25.6543 25.0497C28.1017 25.6804 29.2119 26.1851 30.1202 27.1186C31.0286 28.0269 31.4827 29.2633 31.4827 30.7519C31.4827 34.2338 29.0858 36.3785 25.2001 36.3785C23.661 36.3785 22.3995 36.0252 21.0118 35.2431V36H18.3373Z" fill="white"/>
</svg>
