<svg width="36" height="39" viewBox="0 0 36 39" fill="none" xmlns="http://www.w3.org/2000/svg">
<path d="M16.6875 0V16.5H19.875V0H16.6875Z" fill="#7A8EFF"/>
<path d="M8.86602e-07 20.325C-0.00115674 16.6357 1.13133 13.0352 3.24415 10.0109C5.35696 6.98653 8.34806 4.68444 11.8125 3.41626V6.86251C8.76851 8.265 6.29012 10.6583 4.78224 13.6515C3.27437 16.6447 2.82615 20.0608 3.51082 23.3417C4.19548 26.6225 5.97255 29.5742 8.5517 31.7145C11.1309 33.8548 14.3596 35.0572 17.7105 35.1252C21.0613 35.1932 24.3362 34.1228 27 32.0889C29.6639 30.0549 31.5592 27.1778 32.3764 23.9274C33.1936 20.677 32.8843 17.2455 31.4991 14.1936C30.1139 11.1417 27.7346 8.64982 24.75 7.12501V3.63376C27.7774 4.85841 30.4146 6.8836 32.3791 9.49239C34.3436 12.1012 35.5613 15.1953 35.9019 18.4432C36.2424 21.6911 35.6929 24.9705 34.3123 27.93C32.9316 30.8895 30.7718 33.4177 28.0643 35.2437C25.3567 37.0696 22.2034 38.1246 18.9422 38.2955C15.6809 38.4665 12.4346 37.7469 9.551 36.2141C6.66739 34.6812 4.25514 32.3926 2.57266 29.5937C0.890182 26.7947 0.000872412 23.5907 8.86602e-07 20.325Z" fill="#7A8EFF"/>
</svg>
