<svg width="38" height="44" viewBox="0 0 38 44" fill="none" xmlns="http://www.w3.org/2000/svg">
<path d="M14.5019 4.49503L13.8561 1.49503C17.2813 0.759957 20.8238 0.759957 24.2491 1.49503L23.6032 4.49503C20.6054 3.83525 17.4997 3.83525 14.5019 4.49503ZM9.99623 5.99503L8.61451 3.32503C6.71605 4.23153 4.94393 5.38121 3.34292 6.74503L5.28034 9.02503C6.69185 7.84161 8.2458 6.83885 9.90612 6.04003L9.99623 5.99503ZM16.0037 25C16.0037 25.7957 16.3202 26.5587 16.8835 27.1214C17.4468 27.684 18.2109 28 19.0075 28C19.8041 28 20.5682 27.684 21.1315 27.1214C21.6948 26.5587 22.0113 25.7957 22.0113 25C22.0081 24.4765 21.8678 23.9629 21.6043 23.5103C21.3408 23.0577 20.9634 22.6818 20.5094 22.42V10.075V7.07503C20.0138 7.07503 19.5181 7.07503 19.0075 7.07503C18.4969 7.07503 17.9862 7.07503 17.5056 7.07503V10.075V22.435C17.0538 22.6955 16.6777 23.069 16.4144 23.5188C16.151 23.9685 16.0095 24.479 16.0037 25ZM23.5131 7.60003V10.705C26.9361 11.7802 29.8605 14.0438 31.7571 17.086C33.6536 20.1283 34.3969 23.7482 33.8523 27.2905C33.3078 30.8327 31.5114 34.0632 28.7884 36.3971C26.0654 38.731 22.5957 40.0141 19.0075 40.0141C15.4193 40.0141 11.9496 38.731 9.22658 36.3971C6.50358 34.0632 4.70722 30.8327 4.16267 27.2905C3.61813 23.7482 4.3614 20.1283 6.25793 17.086C8.15445 14.0438 11.0789 11.7802 14.5019 10.705V7.61503C10.2546 8.7103 6.55308 11.3151 4.09114 14.9411C1.62921 18.5671 0.575887 22.9654 1.12861 27.3115C1.68134 31.6577 3.80217 35.6533 7.09356 38.5495C10.385 41.4456 14.6209 43.0435 19.0075 43.0435C23.3941 43.0435 27.63 41.4456 30.9214 38.5495C34.2128 35.6533 36.3337 31.6577 36.8864 27.3115C37.4391 22.9654 36.3858 18.5671 33.9239 14.9411C31.4619 11.3151 27.7604 8.7103 23.5131 7.61503V7.60003Z" fill="#7A8EFF"/>
</svg>
