<svg width="556" height="654" viewBox="0 0 556 654" fill="none" xmlns="http://www.w3.org/2000/svg">
<g clip-path="url(#clip0_434_4945)">
<path d="M437.24 617H92.6787C83.5558 611.306 86.8292 597.613 92.6787 589.485C93.5725 588.156 94.7735 587.062 96.1798 586.296C99.2112 584.873 102.94 586.439 106.142 585.385C110.483 583.962 112.148 578.695 111.835 574.197C111.522 569.699 109.629 565.386 109.629 560.817C109.638 557.2 110.758 553.673 112.838 550.714C114.918 547.756 117.857 545.508 121.257 544.276C124.829 543.138 128.629 543.138 132.202 542.227C135.475 541.472 138.819 539.721 140.257 536.832C140.449 536.493 140.606 536.135 140.727 535.764C141.709 532.576 140.342 529.145 140.342 525.8C140.186 517.359 150.533 510.669 158.204 514.17C162.616 516.149 167.626 520.562 171.283 517.444C173.247 515.765 173.247 512.804 174.471 510.527C176.592 506.256 182.527 505.046 186.939 506.797C191.351 508.548 200.915 509.644 203.733 513.416C206.541 517.208 209.031 521.227 211.176 525.43C212.243 527.394 208.6 534.398 210.351 535.764C212.496 537.117 214.938 537.928 217.467 538.127L235.1 540.86C240.879 541.771 246.885 542.753 251.51 546.255C254.784 548.689 257.288 553.372 259.807 558.34C263.223 565.343 266.568 572.788 271.734 575.293C276.445 573.87 279.875 568.831 282.522 563.436C284.045 560.589 285.369 557.5 286.479 554.995C288.613 550.354 290.748 544.049 295.9 544.049C300.312 544.049 305.18 551.507 308.14 548.234C313.164 542.54 300.17 539.494 314.231 526.796C321.675 520.106 335.21 513.331 342.497 520.106C344.56 521.999 348.047 525.8 350.566 527.024C357.682 530.597 361.653 526.796 369.41 525.273C378.234 523.523 386.488 529.544 393.348 535.465C396.241 537.774 398.94 540.317 401.418 543.066C402.565 544.508 403.606 546.03 404.535 547.621C407.444 552.612 409.013 558.271 409.089 564.048C409.175 568.688 408.335 573.243 408.563 577.884C408.79 582.524 410.612 587.378 414.569 589.741C418.753 592.246 438.963 590.496 443.446 592.403C451.003 595.648 449.252 610.167 437.24 617Z" fill="#FF7B75"/>
<path d="M253.517 591.99C252.491 595.041 250.814 597.831 248.602 600.169C246.39 602.506 243.697 604.335 240.708 605.527C239.736 605.775 238.86 606.305 238.189 607.05C237.783 608.037 237.679 609.122 237.89 610.168C238.108 612.443 238.056 614.737 237.733 617H92.6787C83.5558 611.306 86.8292 597.613 92.6787 589.485C93.5725 588.156 94.7735 587.062 96.1798 586.296C99.2112 584.873 102.94 586.439 106.142 585.385C109.8 584.232 111.551 580.361 111.835 576.489C111.906 575.727 111.906 574.959 111.835 574.197C111.451 569.713 109.629 565.386 109.629 560.817C109.638 557.2 110.758 553.673 112.838 550.715C114.918 547.756 117.857 545.508 121.257 544.276C124.829 543.138 128.629 543.138 132.202 542.227C135.475 541.472 138.819 539.721 140.257 536.832C145.128 537.381 149.819 538.993 154 541.553C158.181 544.113 161.748 547.56 164.452 551.65C166.43 554.767 167.867 558.269 170.685 560.703C176.008 565.343 183.978 564.418 190.895 563.208C194.24 562.682 198.011 561.685 199.648 558.653C200.701 556.675 200.473 554.155 201.697 552.262C203.676 549.145 208.23 549.216 211.888 549.828C222.975 551.65 234.375 554.767 243.042 561.998C251.709 569.229 257.175 581.286 253.517 591.99Z" fill="#DC242A"/>
<path d="M437.24 617H356.216C352.331 610.922 348.005 604.758 345.187 598.296C343.763 595.178 344.361 592.602 345.727 589.485C346.482 587.734 349.997 579.677 352.417 579.677C355.533 576.944 359.533 575.193 362.593 572.375C365.814 569.607 368.055 565.873 368.983 561.728C369.273 559.72 369.808 557.755 370.577 555.877C372.306 553.266 374.927 551.374 377.949 550.554C386.389 547.522 395.512 547.294 404.563 547.593C407.473 552.584 409.041 558.243 409.118 564.019C409.203 568.66 408.363 573.215 408.591 577.855C408.819 582.496 410.64 587.35 414.597 589.713C418.781 592.218 438.991 590.467 443.474 592.374C451.003 595.648 449.252 610.167 437.24 617Z" fill="#DC242A"/>
<path d="M227.073 617H92.6787C83.5558 611.306 86.8292 597.613 92.6787 589.485C93.5725 588.156 94.7735 587.063 96.1798 586.297C99.2112 584.873 102.94 586.439 106.142 585.386C109.8 584.233 111.551 580.361 111.835 576.489C117.76 576.383 123.632 575.355 129.241 573.443C133.184 572.019 137.225 570.326 141.324 571.165C145.053 571.92 147.942 574.738 150.518 577.542C157.487 585.012 163.748 593.113 169.219 601.741C170.97 604.474 172.721 607.435 175.61 609.043C179.253 611.235 184.035 610.708 187.921 608.958C191.707 606.913 195.23 604.413 198.41 601.513C198.812 600.991 199.319 600.558 199.897 600.241C200.475 599.925 201.113 599.732 201.77 599.675C202.426 599.617 203.088 599.696 203.712 599.907C204.337 600.118 204.911 600.457 205.398 600.901C210.265 604.403 215.204 607.89 220.071 611.392C222.532 613.097 224.872 614.971 227.073 617Z" fill="#B80A07"/>
<path d="M370.193 617H215.816C217.794 608.331 220.911 599.919 227.529 594.225C229.178 593.065 230.683 591.713 232.012 590.197C236.566 584.275 232.539 575.677 234.061 568.461C234.566 566.031 235.683 563.77 237.307 561.894C238.931 560.018 241.008 558.589 243.341 557.742C248.052 556.062 253.303 556.973 258.228 557.97C258.769 557.97 259.295 558.197 259.836 558.269C265.372 559.336 270.852 560.404 276.331 561.614C278.446 562.038 280.525 562.623 282.551 563.365C285.06 564.196 287.368 565.544 289.325 567.322C294.036 571.962 295.175 579.635 300.711 583.207C302.569 584.308 304.592 585.101 306.703 585.556C314.075 587.606 321.447 589.727 328.819 591.777C329.269 591.971 329.753 592.071 330.243 592.071C330.732 592.071 331.217 591.971 331.666 591.777C332.238 591.313 332.639 590.672 332.805 589.954C334.15 586.052 334.635 581.906 334.228 577.798C334.073 577.207 334.155 576.579 334.455 576.047C334.996 575.293 336.049 575.364 336.975 575.592C345.941 577.186 355.59 579.321 361.525 586.239C365.467 590.794 367.218 596.872 368.285 602.808C369.188 607.499 369.825 612.237 370.193 617Z" fill="#B80A07"/>
</g>
<g clip-path="url(#clip1_434_4945)">
<path d="M244.948 503.078C251.561 517.91 332.174 472.626 322.173 450.397C300.256 401.767 235.531 482.017 244.948 503.078Z" fill="#F0C3A3"/>
<path d="M322.153 450.397C318.967 443.344 314.874 439.071 310.257 436.874C312.467 439.413 314.275 442.274 315.62 445.359C324.331 464.726 264.204 501.607 244.262 500.921C244.395 501.665 244.619 502.389 244.927 503.078C251.541 517.911 332.154 472.626 322.153 450.397Z" fill="#E69B65"/>
<path d="M287.996 444.19C290.842 441.592 294.144 439.543 297.735 438.144C298.645 437.761 299.629 437.584 300.616 437.626C301.602 437.668 302.567 437.927 303.442 438.386C304.343 439.146 304.964 440.187 305.205 441.341C305.446 442.495 305.294 443.697 304.772 444.754C303.038 449.148 298.36 451.747 294.005 454.005C289.267 456.463 284.548 458.962 279.79 461.401C277.108 462.751 274.386 464.888 273.519 461.24C271.946 454.71 283.883 447.535 287.996 444.19Z" fill="#F5D7C1"/>
</g>
<g clip-path="url(#clip2_434_4945)">
<path d="M306.32 257.852L220.206 222.993C227.776 214.481 234.218 205.029 239.374 194.871C245.195 183.083 249.349 169.112 246.327 155.834C243.754 144.514 235.909 133.715 219.316 125.348C219.316 125.348 253.048 58.6222 195.918 43.3626C138.788 28.103 117.467 100.722 138.571 137.644C138.571 137.644 127.348 145.861 127.595 152.919C127.842 159.976 144.968 227.071 166.513 237.177C188.058 247.283 192.434 237.046 201.549 237.555C210.664 238.064 298.615 266.507 298.615 266.507C298.615 266.507 290.563 279.358 295.277 290.13L326.729 267.017L339.095 257.909C339.095 257.909 325.793 245.787 306.32 257.852ZM139.398 110.257C140.856 85.6645 155.481 49.7294 182.811 53.4331C241.604 61.4281 208.905 124.013 208.905 124.013C198.457 122.646 147.417 134.797 147.417 134.797C147.417 134.797 138.367 126.718 139.363 110.259L139.398 110.257Z" fill="#EB140A"/>
<path d="M294.042 366.508C294.042 366.508 267.721 385.172 279.163 388.549C290.606 391.926 294.042 366.508 294.042 366.508Z" fill="#7A8EFF"/>
<path d="M292.379 368.27C292.379 368.27 270.108 384.282 279.14 386.946C288.171 389.61 292.379 368.27 292.379 368.27Z" fill="#7A8EFF"/>
<path d="M294.042 366.508L293.497 366.897C292.543 372.312 288.611 390.264 278.874 387.389C278.354 387.28 277.863 387.067 277.428 386.762C276.994 386.458 276.626 386.068 276.347 385.617C276.412 386.924 277.2 387.972 279.163 388.549C290.611 391.93 294.042 366.508 294.042 366.508Z" fill="#2D90D3"/>
<path d="M279.671 380.779C280.647 379.312 281.954 378.096 283.488 377.23C283.662 377.131 283.93 377.055 284.034 377.233C284.138 377.411 284.025 377.518 283.95 377.641C282.693 379.503 281.109 381.135 279.904 383.031C279.607 383.471 278.257 386.283 277.476 385.631C276.913 385.16 278.2 383.327 278.447 382.962C278.824 382.219 279.197 381.481 279.671 380.779Z" fill="#43C5E8"/>
<path d="M287.677 372.884C287.667 372.926 287.668 372.971 287.682 373.012C287.739 373.051 287.802 373.093 287.894 373.055C288.162 372.983 288.422 372.879 288.667 372.746C288.976 372.572 291.251 371 290.036 370.903C289.08 370.806 287.829 372.056 287.677 372.884Z" fill="#43C5E8"/>
<path d="M324.412 363.911C324.412 363.911 303.266 388.279 315.176 388.846C327.086 389.413 324.412 363.911 324.412 363.911Z" fill="#7A8EFF"/>
<path d="M323.219 366.023C323.219 366.023 305.37 386.848 314.776 387.296C324.182 387.744 323.219 366.023 323.219 366.023Z" fill="#7A8EFF"/>
<path d="M324.412 363.911C324.412 363.911 324.258 364.139 323.964 364.439C324.318 369.923 324.751 388.303 314.609 387.815C314.078 387.836 313.548 387.748 313.053 387.556C312.558 387.365 312.107 387.074 311.728 386.701C312.095 387.955 313.114 388.784 315.153 388.88C327.091 389.417 324.412 363.911 324.412 363.911Z" fill="#2D90D3"/>
<path d="M313.826 381.193C314.426 379.539 315.409 378.049 316.694 376.846C316.84 376.703 317.082 376.567 317.224 376.713C317.367 376.859 317.293 376.993 317.241 377.132C316.491 379.252 315.322 381.206 314.587 383.328C314.422 383.832 313.733 386.908 312.847 386.435C312.188 386.106 313.01 384.051 313.12 383.568C313.314 382.765 313.549 381.972 313.826 381.193Z" fill="#43C5E8"/>
<path d="M319.728 371.637C319.726 371.658 319.728 371.68 319.734 371.7C319.741 371.72 319.752 371.738 319.766 371.754C319.828 371.797 319.909 371.776 319.978 371.748C320.228 371.601 320.461 371.426 320.67 371.226C320.928 370.993 322.759 368.921 321.562 369.118C320.628 369.269 319.695 370.775 319.728 371.637Z" fill="#43C5E8"/>
<path d="M313.484 327.133C313.484 327.133 313.702 359.399 304.285 352.086C294.868 344.773 313.484 327.133 313.484 327.133Z" fill="#7A8EFF"/>
<path d="M313.005 329.528C313.005 329.528 313.017 356.966 305.584 351.184C298.151 345.401 313.005 329.528 313.005 329.528Z" fill="#7A8EFF"/>
<path d="M313.484 327.133L313.48 327.803C309.649 331.742 297.369 345.414 305.39 351.643C305.781 352.002 306.242 352.277 306.743 352.452C307.245 352.626 307.776 352.695 308.306 352.655C307.209 353.369 305.898 353.341 304.285 352.086C294.847 344.792 313.484 327.133 313.484 327.133Z" fill="#2D90D3"/>
<path d="M310.273 347.167C310.892 345.519 311.116 343.749 310.928 341.999C310.903 341.79 310.809 341.536 310.608 341.55C310.407 341.564 310.374 341.724 310.322 341.864C309.516 343.955 309.144 346.206 308.308 348.293C308.111 348.783 306.629 351.532 307.615 351.782C308.325 351.962 309.035 349.839 309.219 349.407C309.608 348.678 309.96 347.931 310.273 347.167Z" fill="#43C5E8"/>
<path d="M311.987 336.097C311.96 336.128 311.925 336.151 311.885 336.161C311.807 336.167 311.76 336.077 311.708 336.042C311.61 335.77 311.547 335.488 311.52 335.2C311.473 334.852 311.428 332.087 312.219 333.02C312.859 333.685 312.593 335.434 311.987 336.097Z" fill="#43C5E8"/>
<path d="M328.156 321.244C328.156 321.244 338.214 351.899 327.017 347.814C315.819 343.73 328.156 321.244 328.156 321.244Z" fill="#7A8EFF"/>
<path d="M328.432 323.667C328.432 323.667 336.82 349.778 327.955 346.536C319.089 343.294 328.432 323.667 328.432 323.667Z" fill="#7A8EFF"/>
<path d="M328.156 321.244L328.355 321.886C325.909 326.801 318.396 343.582 327.936 347.055C328.418 347.275 328.94 347.396 329.469 347.409C329.999 347.422 330.526 347.328 331.018 347.132C330.192 348.146 328.935 348.519 327.017 347.814C315.802 343.743 328.156 321.244 328.156 321.244Z" fill="#2D90D3"/>
<path d="M331.22 341.292C331.3 339.533 330.971 337.78 330.256 336.17C330.175 335.982 330.005 335.767 329.8 335.862C329.595 335.956 329.642 336.096 329.625 336.243C329.5 338.485 329.838 340.742 329.672 342.982C329.635 343.506 329.065 346.578 330.079 346.516C330.815 346.472 330.842 344.229 330.919 343.757C331.039 342.94 331.177 342.12 331.22 341.292Z" fill="#43C5E8"/>
<path d="M329.47 330.194C329.466 330.215 329.457 330.235 329.445 330.253C329.433 330.27 329.418 330.285 329.4 330.297C329.331 330.325 329.265 330.264 329.229 330.181C329.049 329.955 328.902 329.704 328.792 329.437C328.641 329.119 327.751 326.498 328.784 327.146C329.555 327.667 329.839 329.413 329.47 330.194Z" fill="#43C5E8"/>
<path d="M349.197 321.152C349.197 321.152 364.337 349.659 352.595 347.551C340.852 345.443 349.197 321.152 349.197 321.152Z" fill="#7A8EFF"/>
<path d="M349.902 323.456C349.902 323.456 362.604 347.733 353.356 346.078C344.108 344.424 349.902 323.456 349.902 323.456Z" fill="#7A8EFF"/>
<path d="M349.197 321.152L349.51 321.746C347.936 327.008 343.392 344.821 353.387 346.623C353.897 346.759 354.43 346.79 354.953 346.715C355.475 346.639 355.977 346.458 356.428 346.182C355.781 347.325 354.608 347.904 352.599 347.545C340.866 345.41 349.197 321.152 349.197 321.152Z" fill="#2D90D3"/>
<path d="M355.638 340.371C355.421 338.622 354.797 336.948 353.817 335.484C353.705 335.317 353.5 335.129 353.328 335.237C353.155 335.345 353.204 335.494 353.218 335.645C353.477 337.872 354.19 340.041 354.414 342.271C354.47 342.791 354.442 345.922 355.429 345.691C356.141 345.523 355.791 343.308 355.78 342.844C355.777 342.018 355.73 341.192 355.638 340.371Z" fill="#43C5E8"/>
<path d="M352.026 329.728C352.022 329.749 352.014 329.769 352.002 329.787C351.99 329.804 351.975 329.819 351.957 329.831C351.918 329.888 351.811 329.824 351.753 329.776C351.542 329.581 351.356 329.36 351.198 329.119C350.998 328.826 349.686 326.436 350.805 326.859C351.674 327.221 352.273 328.906 352.026 329.728Z" fill="#43C5E8"/>
<path d="M310.013 292.913C310.013 292.913 323.257 311.129 314.934 310.814C306.611 310.499 310.013 292.913 310.013 292.913Z" fill="#7A8EFF"/>
<path d="M310.707 294.445C310.707 294.445 321.872 310.004 315.322 309.771C308.771 309.538 310.707 294.445 310.707 294.445Z" fill="#7A8EFF"/>
<path d="M310.013 292.913L310.28 293.292C309.717 297.069 308.303 309.838 315.383 310.111C315.752 310.155 316.126 310.123 316.483 310.018C316.839 309.913 317.171 309.737 317.457 309.501C317.122 310.355 316.368 310.868 314.916 310.802C306.614 310.493 310.013 292.913 310.013 292.913Z" fill="#2D90D3"/>
<path d="M316.338 305.569C316.016 304.382 315.421 303.286 314.601 302.368C314.486 302.291 314.327 302.183 314.24 302.25C314.154 302.316 314.178 302.44 314.202 302.54C314.6 304.056 315.305 305.487 315.674 307.008C315.764 307.368 316.043 309.527 316.698 309.271C317.173 309.084 316.704 307.612 316.668 307.272C316.566 306.696 316.486 306.126 316.338 305.569Z" fill="#43C5E8"/>
<path d="M312.806 298.563C312.803 298.579 312.798 298.593 312.789 298.606C312.78 298.619 312.769 298.63 312.756 298.638C312.729 298.678 312.658 298.647 312.612 298.616C312.446 298.504 312.297 298.369 312.168 298.216C311.999 298.035 310.84 296.488 311.674 296.694C312.019 296.869 312.307 297.136 312.507 297.467C312.707 297.797 312.811 298.177 312.806 298.563Z" fill="#43C5E8"/>
<path d="M322.578 288.237C322.578 288.237 337.889 304.757 329.585 305.436C321.281 306.114 322.578 288.237 322.578 288.237Z" fill="#7A8EFF"/>
<path d="M323.464 289.683C323.464 289.683 336.374 303.801 329.838 304.335C323.303 304.868 323.464 289.683 323.464 289.683Z" fill="#7A8EFF"/>
<path d="M322.578 288.237L322.893 288.583C322.79 292.428 322.909 305.218 329.955 304.679C330.325 304.681 330.692 304.606 331.033 304.46C331.373 304.313 331.68 304.099 331.933 303.829C331.703 304.712 331.015 305.312 329.589 305.43C321.293 306.097 322.578 288.237 322.578 288.237Z" fill="#2D90D3"/>
<path d="M330.364 300.059C329.905 298.919 329.186 297.901 328.264 297.088C328.144 297.007 327.984 296.899 327.886 297.007C327.788 297.115 327.845 297.204 327.888 297.299C328.455 298.762 329.328 300.092 329.877 301.568C330.007 301.905 330.541 304.019 331.162 303.69C331.617 303.449 330.981 302.014 330.891 301.704C330.73 301.154 330.577 300.594 330.364 300.059Z" fill="#43C5E8"/>
<path d="M326.025 293.522C326.015 293.549 325.999 293.572 325.978 293.591C325.951 293.631 325.879 293.615 325.829 293.59C325.651 293.499 325.484 293.386 325.333 293.255C325.127 293.116 323.819 291.693 324.653 291.799C325.021 291.928 325.345 292.158 325.588 292.463C325.83 292.768 325.982 293.135 326.025 293.522Z" fill="#43C5E8"/>
<path d="M335.414 281.325C335.414 281.325 350.725 297.845 342.422 298.524C334.118 299.202 335.414 281.325 335.414 281.325Z" fill="#7A8EFF"/>
<path d="M336.29 282.773C336.29 282.773 349.204 296.885 342.665 297.425C336.125 297.964 336.29 282.773 336.29 282.773Z" fill="#7A8EFF"/>
<path d="M335.414 281.325L335.725 281.676C335.623 285.522 335.741 298.311 342.785 297.763C343.156 297.763 343.523 297.688 343.864 297.542C344.205 297.397 344.513 297.184 344.77 296.917C344.533 297.796 343.842 298.402 342.425 298.518C334.108 299.179 335.414 281.325 335.414 281.325Z" fill="#2D90D3"/>
<path d="M343.169 293.144C342.708 292.005 341.989 290.988 341.07 290.172C340.95 290.091 340.79 289.983 340.688 290.097C340.586 290.211 340.656 290.292 340.69 290.389C341.266 291.851 342.13 293.182 342.683 294.652C342.809 294.995 343.343 297.109 343.968 296.775C344.422 296.533 343.788 295.108 343.699 294.798C343.56 294.239 343.407 293.678 343.169 293.144Z" fill="#43C5E8"/>
<path d="M338.855 286.607C338.852 286.621 338.847 286.634 338.839 286.646C338.831 286.658 338.821 286.668 338.809 286.676C338.778 286.721 338.709 286.7 338.66 286.675C338.481 286.583 338.314 286.471 338.163 286.339C337.957 286.201 336.649 284.777 337.487 284.878C337.855 285.007 338.179 285.239 338.421 285.545C338.663 285.851 338.814 286.219 338.855 286.607Z" fill="#43C5E8"/>
<g style="mix-blend-mode:overlay">
<path d="M339.063 257.896L326.697 267.004C310.41 267.33 306.287 257.839 306.287 257.839C325.793 245.787 339.063 257.896 339.063 257.896Z" fill="white"/>
</g>
<g style="mix-blend-mode:overlay">
<path d="M239.335 194.878C224.821 202.17 207.771 205.265 188.854 199.036C113.755 174.356 138.541 137.64 138.541 137.64L147.394 134.781C147.394 134.781 130.415 160.524 183.124 169.516C212.901 174.656 233.143 166.302 246.3 155.825C249.318 169.108 245.157 183.09 239.335 194.878Z" fill="white"/>
</g>
<g style="mix-blend-mode:overlay" opacity="0.9">
<path d="M237.478 159.561C238.224 162.974 237.856 166.524 237.356 169.985C235.061 185.783 229.84 201.593 219.461 213.73C217.657 215.836 214.992 218.036 212.363 217.092C210.185 216.303 209.24 213.579 209.634 211.285C210.027 208.99 211.441 207.044 212.723 205.108C220.438 193.495 225.035 180.093 226.071 166.19C226.339 162.407 226.215 155.191 229.696 152.62C233.507 149.757 236.709 156.008 237.478 159.561Z" fill="white"/>
</g>
<g style="mix-blend-mode:overlay" opacity="0.31">
<path d="M327.867 253.771C329.244 253.81 330.596 254.154 331.824 254.779C332.645 255.25 333.383 256.164 333.072 257.068C332.761 257.972 331.669 258.124 330.761 258.176C329.22 258.267 327.677 258.264 326.145 258.452C324.86 258.607 323.592 258.897 322.31 259.121C320.428 259.447 318.528 259.627 316.628 259.807C315.479 259.921 313.37 260.102 312.686 258.875C312.088 257.84 313.229 256.839 314.036 256.395C316.749 255.038 319.686 254.188 322.704 253.884C324.417 253.683 326.146 253.645 327.867 253.771Z" fill="white"/>
</g>
</g>
<defs>
<clipPath id="clip0_434_4945">
<rect width="361" height="111" fill="white" transform="translate(87 506)"/>
</clipPath>
<clipPath id="clip1_434_4945">
<rect width="79" height="71" fill="white" transform="translate(244 435)"/>
</clipPath>
<clipPath id="clip2_434_4945">
<rect width="336" height="243" fill="white" transform="translate(169.962 22) rotate(34.0222)"/>
</clipPath>
</defs>
</svg>
